ffmpeg started on 2025-06-09 at 18:19:58
Report written to "D:\Convert\FFMetrics\reports\ssim_report-6.txt"
Log level: 32
Command line:
ffmpeg -hide_banner -nostdin -i "G:\\\xc0\xed\xe8\xec\xe5\\\xce\xed\xe3\xee\xe8\xed\xe3\xe8\\!_30_\xc2\xe5\xf1\xed\xe0_2023\\\xd1\xeb\xe8\xf8\xea\xee\xec \xec\xe8\xeb\xfb\xe9 \xea\xf0\xe8\xe7\xe8\xf1\\Kawaisugi_Crisis_[12]_[AniLibria_TV]_[WEBRip_1080p]_HEVC.mkv" -i "G:\\\xc0\xed\xe8\xec\xe5\\\xce\xed\xe3\xee\xe8\xed\xe3\xe8\\!_30_\xc2\xe5\xf1\xed\xe0_2023\\\xd1\xeb\xe8\xf8\xea\xee\xec \xec\xe8\xeb\xfb\xe9 \xea\xf0\xe8\xe7\xe8\xf1\\Kawaisugi_Crisis_[12]_[AniLibria_TV]_[WEBRip_1080p].mkv" -lavfi "[0:v]settb=AVTB,setpts=PTS-STARTPTS,format=pix_fmts=yuv420p10,fps=24000/1001,scale=1920:1080:flags=bicubic[main];[1:v]settb=AVTB,setpts=PTS-STARTPTS,format=pix_fmts=yuv420p,fps=24000/1001,scale=1920:1080:flags=bicubic[ref];[main][ref]ssim=eof_action=endall:stats_file='D\\:/Convert/FFMetrics/logs/ssim_logfile-6.txt'" -f null -
Input #0, matroska,webm, from 'G:\Аниме\Онгоинги\!_30_Весна_2023\Слишком милый кризис\Kawaisugi_Crisis_[12]_[AniLibria_TV]_[WEBRip_1080p]_HEVC.mkv':
  Metadata:
    ENCODER         : Lavf61.7.100
  Duration: 00:23:27.51, start: -0.021000, bitrate: 1122 kb/s
  Stream #0:0(jpn): Video: hevc (Main 10), yuv420p10le(pc, bt709, progressive), 1920x1080 [SAR 1:1 DAR 16:9], 23.98 fps, 23.98 tbr, 1k tbn (default) (forced)
      Metadata:
        title           : Original
        ENCODER         : Lavc61.19.100 libx265
        BPS             : 923730
        DURATION        : 00:23:27.489708333
        NUMBER_OF_FRAMES: 33746
        NUMBER_OF_BYTES : 162517623
        _STATISTICS_WRITING_APP: mkvpropedit v66.0.0 ('Josie') 64-bit
        _STATISTICS_WRITING_DATE_UTC: 2025-06-09 14:34:47
        _STATISTICS_TAGS: BPS DURATION NUMBER_OF_FRAMES NUMBER_OF_BYTES
  Stream #0:1(rus): Audio: aac (LC), 48000 Hz, stereo, fltp (default) (forced)
      Metadata:
        title           : AniLibria.TV
        ENCODER         : Lavc61.19.100 aac
        BPS             : 194337
        DURATION        : 00:23:27.487000000
        NUMBER_OF_FRAMES: 65977
        NUMBER_OF_BYTES : 34190919
        _STATISTICS_WRITING_APP: mkvpropedit v66.0.0 ('Josie') 64-bit
        _STATISTICS_WRITING_DATE_UTC: 2025-06-09 14:34:47
        _STATISTICS_TAGS: BPS DURATION NUMBER_OF_FRAMES NUMBER_OF_BYTES
  Stream #0:2(rus): Subtitle: ass (ssa) (default) (forced)
      Metadata:
        title           : Надписи
        BPS             : 0
        DURATION        : 00:00:00.000000000
        NUMBER_OF_FRAMES: 0
        NUMBER_OF_BYTES : 0
        _STATISTICS_WRITING_APP: mkvpropedit v66.0.0 ('Josie') 64-bit
        _STATISTICS_WRITING_DATE_UTC: 2025-06-09 14:34:47
        _STATISTICS_TAGS: BPS DURATION NUMBER_OF_FRAMES NUMBER_OF_BYTES
  Stream #0:3(rus): Subtitle: ass (ssa)
      Metadata:
        title           : Субтитры
        BPS             : 174
        DURATION        : 00:23:25.000000000
        NUMBER_OF_FRAMES: 332
        NUMBER_OF_BYTES : 30632
        _STATISTICS_WRITING_APP: mkvpropedit v66.0.0 ('Josie') 64-bit
        _STATISTICS_WRITING_DATE_UTC: 2025-06-09 14:34:47
        _STATISTICS_TAGS: BPS DURATION NUMBER_OF_FRAMES NUMBER_OF_BYTES
Input #1, matroska,webm, from 'G:\Аниме\Онгоинги\!_30_Весна_2023\Слишком милый кризис\Kawaisugi_Crisis_[12]_[AniLibria_TV]_[WEBRip_1080p].mkv':
  Metadata:
    encoder         : libebml v1.4.2 + libmatroska v1.6.4
    creation_time   : 2025-01-14T16:54:58.000000Z
  Duration: 00:23:27.49, start: 0.000000, bitrate: 2096 kb/s
  Stream #1:0(jpn): Video: h264 (High), yuvj420p(pc, bt709, progressive), 1920x1080 [SAR 1:1 DAR 16:9], 23.98 fps, 23.98 tbr, 1k tbn (default) (forced)
      Metadata:
        title           : Original
        BPS             : 1902130
        DURATION        : 00:23:27.490000000
        NUMBER_OF_FRAMES: 33746
        NUMBER_OF_BYTES : 334653732
        _STATISTICS_WRITING_APP: mkvmerge v66.0.0 ('Josie') 64-bit
        _STATISTICS_WRITING_DATE_UTC: 2025-01-14 16:54:58
        _STATISTICS_TAGS: BPS DURATION NUMBER_OF_FRAMES NUMBER_OF_BYTES
  Stream #1:1(rus): Audio: aac (LC), 48000 Hz, stereo, fltp (default) (forced)
      Metadata:
        title           : AniLibria.TV
        BPS             : 192088
        DURATION        : 00:23:27.487000000
        NUMBER_OF_FRAMES: 65976
        NUMBER_OF_BYTES : 33795185
        _STATISTICS_WRITING_APP: mkvmerge v66.0.0 ('Josie') 64-bit
        _STATISTICS_WRITING_DATE_UTC: 2025-01-14 16:54:58
        _STATISTICS_TAGS: BPS DURATION NUMBER_OF_FRAMES NUMBER_OF_BYTES
  Stream #1:2(rus): Subtitle: ass (ssa) (default) (forced)
      Metadata:
        title           : Надписи
        BPS             : 0
        DURATION        : 00:00:00.000000000
        NUMBER_OF_FRAMES: 0
        NUMBER_OF_BYTES : 0
        _STATISTICS_WRITING_APP: mkvmerge v66.0.0 ('Josie') 64-bit
        _STATISTICS_WRITING_DATE_UTC: 2025-01-14 16:54:58
        _STATISTICS_TAGS: BPS DURATION NUMBER_OF_FRAMES NUMBER_OF_BYTES
  Stream #1:3(rus): Subtitle: ass (ssa)
      Metadata:
        title           : Субтитры
        BPS             : 174
        DURATION        : 00:23:25.000000000
        NUMBER_OF_FRAMES: 332
        NUMBER_OF_BYTES : 30632
        _STATISTICS_WRITING_APP: mkvmerge v66.0.0 ('Josie') 64-bit
        _STATISTICS_WRITING_DATE_UTC: 2025-01-14 16:54:58
        _STATISTICS_TAGS: BPS DURATION NUMBER_OF_FRAMES NUMBER_OF_BYTES
Stream mapping:
  Stream #0:0 (hevc) -> settb:default
  Stream #1:0 (h264) -> settb:default
  ssim:default -> Stream #0:0 (wrapped_avframe)
  Stream #0:1 -> #0:1 (aac (native) -> pcm_s16le (native))
[swscaler @ 0000018e9332d240] deprecated pixel format used, make sure you did set range correctly
Output #0, null, to 'pipe:':
  Metadata:
    encoder         : Lavf61.7.100
  Stream #0:0: Video: wrapped_avframe, yuv420p10le(pc, bt709, progressive), 1920x1080 [SAR 1:1 DAR 16:9], q=2-31, 200 kb/s, 23.98 fps, 23.98 tbn
      Metadata:
        encoder         : Lavc61.19.100 wrapped_avframe
  Stream #0:1(rus): Audio: pcm_s16le, 48000 Hz, stereo, s16, 1536 kb/s (default) (forced)
      Metadata:
        title           : AniLibria.TV
        _STATISTICS_TAGS: BPS DURATION NUMBER_OF_FRAMES NUMBER_OF_BYTES
        BPS             : 194337
        DURATION        : 00:23:27.487000000
        NUMBER_OF_FRAMES: 65977
        NUMBER_OF_BYTES : 34190919
        _STATISTICS_WRITING_APP: mkvpropedit v66.0.0 ('Josie') 64-bit
        _STATISTICS_WRITING_DATE_UTC: 2025-06-09 14:34:47
        encoder         : Lavc61.19.100 pcm_s16le
frame=  157 fps=0.0 q=-0.0 size=N/A time=00:00:06.54 bitrate=N/A speed=12.5x    frame=  283 fps=273 q=-0.0 size=N/A time=00:00:11.80 bitrate=N/A speed=11.4x    frame=  463 fps=300 q=-0.0 size=N/A time=00:00:19.31 bitrate=N/A speed=12.5x    frame=  694 fps=336 q=-0.0 size=N/A time=00:00:28.94 bitrate=N/A speed=  14x    frame=  937 fps=363 q=-0.0 size=N/A time=00:00:39.08 bitrate=N/A speed=15.1x    frame= 1164 fps=376 q=-0.0 size=N/A time=00:00:48.54 bitrate=N/A speed=15.7x    frame= 1398 fps=386 q=-0.0 size=N/A time=00:00:58.30 bitrate=N/A speed=16.1x    frame= 1641 fps=397 q=-0.0 size=N/A time=00:01:08.44 bitrate=N/A speed=16.6x    frame= 1772 fps=381 q=-0.0 size=N/A time=00:01:13.90 bitrate=N/A speed=15.9x    frame= 1984 fps=385 q=-0.0 size=N/A time=00:01:22.74 bitrate=N/A speed=  16x    frame= 2202 fps=388 q=-0.0 size=N/A time=00:01:31.84 bitrate=N/A speed=16.2x    frame= 2422 fps=392 q=-0.0 size=N/A time=00:01:41.01 bitrate=N/A speed=16.3x    frame= 2635 fps=393 q=-0.0 size=N/A time=00:01:49.90 bitrate=N/A speed=16.4x    frame= 2829 fps=392 q=-0.0 size=N/A time=00:01:57.99 bitrate=N/A speed=16.3x    frame= 3039 fps=393 q=-0.0 size=N/A time=00:02:06.79 bitrate=N/A speed=16.4x    frame= 3259 fps=395 q=-0.0 size=N/A time=00:02:15.92 bitrate=N/A speed=16.5x    frame= 3487 fps=398 q=-0.0 size=N/A time=00:02:25.43 bitrate=N/A speed=16.6x    frame= 3715 fps=400 q=-0.0 size=N/A time=00:02:34.94 bitrate=N/A speed=16.7x    frame= 3854 fps=393 q=-0.0 size=N/A time=00:02:40.74 bitrate=N/A speed=16.4x    frame= 4014 fps=389 q=-0.0 size=N/A time=00:02:47.41 bitrate=N/A speed=16.2x    frame= 4265 fps=394 q=-0.0 size=N/A time=00:02:57.88 bitrate=N/A speed=16.4x    frame= 4485 fps=395 q=-0.0 size=N/A time=00:03:07.06 bitrate=N/A speed=16.5x    frame= 4720 fps=398 q=-0.0 size=N/A time=00:03:16.86 bitrate=N/A speed=16.6x    frame= 4955 fps=400 q=-0.0 size=N/A time=00:03:26.66 bitrate=N/A speed=16.7x    frame= 5124 fps=398 q=-0.0 size=N/A time=00:03:33.71 bitrate=N/A speed=16.6x    frame= 5312 fps=396 q=-0.0 size=N/A time=00:03:41.55 bitrate=N/A speed=16.5x    frame= 5567 fps=400 q=-0.0 size=N/A time=00:03:52.19 bitrate=N/A speed=16.7x    frame= 5808 fps=402 q=-0.0 size=N/A time=00:04:02.24 bitrate=N/A speed=16.8x    frame= 6043 fps=404 q=-0.0 size=N/A time=00:04:12.04 bitrate=N/A speed=16.8x    frame= 6252 fps=404 q=-0.0 size=N/A time=00:04:20.76 bitrate=N/A speed=16.9x    frame= 6497 fps=406 q=-0.0 size=N/A time=00:04:30.97 bitrate=N/A speed=  17x    frame= 6765 fps=410 q=-0.0 size=N/A time=00:04:42.15 bitrate=N/A speed=17.1x    frame= 7017 fps=412 q=-0.0 size=N/A time=00:04:52.66 bitrate=N/A speed=17.2x    frame= 7245 fps=413 q=-0.0 size=N/A time=00:05:02.17 bitrate=N/A speed=17.2x    frame= 7493 fps=415 q=-0.0 size=N/A time=00:05:12.52 bitrate=N/A speed=17.3x    frame= 7751 fps=417 q=-0.0 size=N/A time=00:05:23.28 bitrate=N/A speed=17.4x    frame= 7998 fps=419 q=-0.0 size=N/A time=00:05:33.58 bitrate=N/A speed=17.5x    frame= 8223 fps=420 q=-0.0 size=N/A time=00:05:42.96 bitrate=N/A speed=17.5x    frame= 8467 fps=421 q=-0.0 size=N/A time=00:05:53.14 bitrate=N/A speed=17.6x    frame= 8710 fps=422 q=-0.0 size=N/A time=00:06:03.27 bitrate=N/A speed=17.6x    frame= 8938 fps=423 q=-0.0 size=N/A time=00:06:12.78 bitrate=N/A speed=17.6x    frame= 9178 fps=424 q=-0.0 size=N/A time=00:06:22.79 bitrate=N/A speed=17.7x    frame= 9435 fps=425 q=-0.0 size=N/A time=00:06:33.51 bitrate=N/A speed=17.7x    frame= 9684 fps=427 q=-0.0 size=N/A time=00:06:43.90 bitrate=N/A speed=17.8x    frame= 9938 fps=428 q=-0.0 size=N/A time=00:06:54.49 bitrate=N/A speed=17.9x    frame=10201 fps=430 q=-0.0 size=N/A time=00:07:05.46 bitrate=N/A speed=17.9x    frame=10386 fps=429 q=-0.0 size=N/A time=00:07:13.18 bitrate=N/A speed=17.9x    frame=10633 fps=429 q=-0.0 size=N/A time=00:07:23.48 bitrate=N/A speed=17.9x    frame=10887 fps=431 q=-0.0 size=N/A time=00:07:34.07 bitrate=N/A speed=  18x    frame=11121 fps=431 q=-0.0 size=N/A time=00:07:43.83 bitrate=N/A speed=  18x    frame=11358 fps=432 q=-0.0 size=N/A time=00:07:53.72 bitrate=N/A speed=  18x    frame=11578 fps=432 q=-0.0 size=N/A time=00:08:02.89 bitrate=N/A speed=  18x    frame=11796 fps=432 q=-0.0 size=N/A time=00:08:11.99 bitrate=N/A speed=  18x    frame=11974 fps=430 q=-0.0 size=N/A time=00:08:19.41 bitrate=N/A speed=17.9x    frame=12182 fps=429 q=-0.0 size=N/A time=00:08:28.09 bitrate=N/A speed=17.9x    frame=12387 fps=429 q=-0.0 size=N/A time=00:08:36.64 bitrate=N/A speed=17.9x    frame=12619 fps=429 q=-0.0 size=N/A time=00:08:46.31 bitrate=N/A speed=17.9x    frame=12876 fps=430 q=-0.0 size=N/A time=00:08:57.03 bitrate=N/A speed=17.9x    frame=13084 fps=430 q=-0.0 size=N/A time=00:09:05.71 bitrate=N/A speed=17.9x    frame=13318 fps=430 q=-0.0 size=N/A time=00:09:15.47 bitrate=N/A speed=17.9x    frame=13556 fps=431 q=-0.0 size=N/A time=00:09:25.39 bitrate=N/A speed=  18x    frame=13774 fps=431 q=-0.0 size=N/A time=00:09:34.49 bitrate=N/A speed=  18x    frame=13980 fps=430 q=-0.0 size=N/A time=00:09:43.08 bitrate=N/A speed=17.9x    frame=14239 fps=431 q=-0.0 size=N/A time=00:09:53.88 bitrate=N/A speed=  18x    frame=14486 fps=432 q=-0.0 size=N/A time=00:10:04.18 bitrate=N/A speed=  18x    frame=14737 fps=433 q=-0.0 size=N/A time=00:10:14.65 bitrate=N/A speed=  18x    frame=14988 fps=434 q=-0.0 size=N/A time=00:10:25.12 bitrate=N/A speed=18.1x    frame=15209 fps=434 q=-0.0 size=N/A time=00:10:34.34 bitrate=N/A speed=18.1x    frame=15441 fps=434 q=-0.0 size=N/A time=00:10:44.01 bitrate=N/A speed=18.1x    frame=15694 fps=435 q=-0.0 size=N/A time=00:10:54.57 bitrate=N/A speed=18.1x    frame=15905 fps=434 q=-0.0 size=N/A time=00:11:03.37 bitrate=N/A speed=18.1x    frame=16107 fps=434 q=-0.0 size=N/A time=00:11:11.79 bitrate=N/A speed=18.1x    frame=16334 fps=434 q=-0.0 size=N/A time=00:11:21.26 bitrate=N/A speed=18.1x    frame=16559 fps=434 q=-0.0 size=N/A time=00:11:30.64 bitrate=N/A speed=18.1x    frame=16765 fps=433 q=-0.0 size=N/A time=00:11:39.24 bitrate=N/A speed=18.1x    frame=17010 fps=434 q=-0.0 size=N/A time=00:11:49.45 bitrate=N/A speed=18.1x    frame=17249 fps=434 q=-0.0 size=N/A time=00:11:59.42 bitrate=N/A speed=18.1x    frame=17489 fps=434 q=-0.0 size=N/A time=00:12:09.43 bitrate=N/A speed=18.1x    frame=17743 fps=435 q=-0.0 size=N/A time=00:12:20.03 bitrate=N/A speed=18.1x    frame=17936 fps=434 q=-0.0 size=N/A time=00:12:28.08 bitrate=N/A speed=18.1x    frame=18196 fps=435 q=-0.0 size=N/A time=00:12:38.92 bitrate=N/A speed=18.2x    frame=18395 fps=435 q=-0.0 size=N/A time=00:12:47.22 bitrate=N/A speed=18.1x    frame=18635 fps=435 q=-0.0 size=N/A time=00:12:57.23 bitrate=N/A speed=18.1x    frame=18806 fps=434 q=-0.0 size=N/A time=00:13:04.36 bitrate=N/A speed=18.1x    frame=19036 fps=434 q=-0.0 size=N/A time=00:13:13.95 bitrate=N/A speed=18.1x    frame=19235 fps=433 q=-0.0 size=N/A time=00:13:22.25 bitrate=N/A speed=18.1x    frame=19400 fps=432 q=-0.0 size=N/A time=00:13:29.14 bitrate=N/A speed=  18x    frame=19624 fps=432 q=-0.0 size=N/A time=00:13:38.48 bitrate=N/A speed=  18x    frame=19821 fps=431 q=-0.0 size=N/A time=00:13:46.70 bitrate=N/A speed=  18x    frame=20020 fps=431 q=-0.0 size=N/A time=00:13:55.00 bitrate=N/A speed=  18x    frame=20212 fps=430 q=-0.0 size=N/A time=00:14:03.00 bitrate=N/A speed=17.9x    frame=20393 fps=429 q=-0.0 size=N/A time=00:14:10.55 bitrate=N/A speed=17.9x    frame=20629 fps=430 q=-0.0 size=N/A time=00:14:20.40 bitrate=N/A speed=17.9x    frame=20878 fps=430 q=-0.0 size=N/A time=00:14:30.78 bitrate=N/A speed=17.9x    frame=21122 fps=431 q=-0.0 size=N/A time=00:14:40.96 bitrate=N/A speed=  18x    frame=21353 fps=431 q=-0.0 size=N/A time=00:14:50.59 bitrate=N/A speed=  18x    frame=21575 fps=431 q=-0.0 size=N/A time=00:14:59.85 bitrate=N/A speed=  18x    frame=21772 fps=430 q=-0.0 size=N/A time=00:15:08.07 bitrate=N/A speed=17.9x    frame=22005 fps=430 q=-0.0 size=N/A time=00:15:17.79 bitrate=N/A speed=  18x    frame=22230 fps=430 q=-0.0 size=N/A time=00:15:27.17 bitrate=N/A speed=  18x    frame=22461 fps=431 q=-0.0 size=N/A time=00:15:36.81 bitrate=N/A speed=  18x    frame=22676 fps=430 q=-0.0 size=N/A time=00:15:45.77 bitrate=N/A speed=  18x    frame=22919 fps=431 q=-0.0 size=N/A time=00:15:55.91 bitrate=N/A speed=  18x    frame=23125 fps=431 q=-0.0 size=N/A time=00:16:04.50 bitrate=N/A speed=  18x    frame=23374 fps=431 q=-0.0 size=N/A time=00:16:14.89 bitrate=N/A speed=  18x    frame=23610 fps=431 q=-0.0 size=N/A time=00:16:24.73 bitrate=N/A speed=  18x    frame=23855 fps=432 q=-0.0 size=N/A time=00:16:34.95 bitrate=N/A speed=  18x    frame=24085 fps=432 q=-0.0 size=N/A time=00:16:44.54 bitrate=N/A speed=  18x    frame=24341 fps=432 q=-0.0 size=N/A time=00:16:55.22 bitrate=N/A speed=  18x    frame=24582 fps=433 q=-0.0 size=N/A time=00:17:05.27 bitrate=N/A speed=18.1x    frame=24785 fps=432 q=-0.0 size=N/A time=00:17:13.74 bitrate=N/A speed=  18x    frame=24983 fps=432 q=-0.0 size=N/A time=00:17:21.99 bitrate=N/A speed=  18x    frame=25180 fps=432 q=-0.0 size=N/A time=00:17:30.21 bitrate=N/A speed=  18x    frame=25407 fps=432 q=-0.0 size=N/A time=00:17:39.68 bitrate=N/A speed=  18x    frame=25623 fps=432 q=-0.0 size=N/A time=00:17:48.69 bitrate=N/A speed=  18x    frame=25850 fps=432 q=-0.0 size=N/A time=00:17:58.16 bitrate=N/A speed=  18x    frame=26042 fps=431 q=-0.0 size=N/A time=00:18:06.16 bitrate=N/A speed=  18x    frame=26284 fps=431 q=-0.0 size=N/A time=00:18:16.26 bitrate=N/A speed=  18x    frame=26513 fps=432 q=-0.0 size=N/A time=00:18:25.81 bitrate=N/A speed=  18x    frame=26738 fps=432 q=-0.0 size=N/A time=00:18:35.19 bitrate=N/A speed=  18x    frame=26993 fps=432 q=-0.0 size=N/A time=00:18:45.83 bitrate=N/A speed=  18x    frame=27222 fps=432 q=-0.0 size=N/A time=00:18:55.38 bitrate=N/A speed=  18x    frame=27456 fps=432 q=-0.0 size=N/A time=00:19:05.14 bitrate=N/A speed=  18x    frame=27707 fps=433 q=-0.0 size=N/A time=00:19:15.61 bitrate=N/A speed=  18x    frame=27939 fps=433 q=-0.0 size=N/A time=00:19:25.28 bitrate=N/A speed=18.1x    frame=28181 fps=433 q=-0.0 size=N/A time=00:19:35.38 bitrate=N/A speed=18.1x    frame=28387 fps=433 q=-0.0 size=N/A time=00:19:43.97 bitrate=N/A speed=18.1x    frame=28604 fps=433 q=-0.0 size=N/A time=00:19:53.02 bitrate=N/A speed=18.1x    frame=28830 fps=433 q=-0.0 size=N/A time=00:20:02.45 bitrate=N/A speed=18.1x    frame=29081 fps=433 q=-0.0 size=N/A time=00:20:12.92 bitrate=N/A speed=18.1x    frame=29307 fps=433 q=-0.0 size=N/A time=00:20:22.34 bitrate=N/A speed=18.1x    frame=29557 fps=434 q=-0.0 size=N/A time=00:20:32.77 bitrate=N/A speed=18.1x    frame=29797 fps=434 q=-0.0 size=N/A time=00:20:42.78 bitrate=N/A speed=18.1x    frame=30026 fps=434 q=-0.0 size=N/A time=00:20:52.33 bitrate=N/A speed=18.1x    frame=30260 fps=434 q=-0.0 size=N/A time=00:21:02.09 bitrate=N/A speed=18.1x    frame=30427 fps=433 q=-0.0 size=N/A time=00:21:09.05 bitrate=N/A speed=18.1x    frame=30609 fps=433 q=-0.0 size=N/A time=00:21:16.65 bitrate=N/A speed=18.1x    frame=30813 fps=433 q=-0.0 size=N/A time=00:21:25.15 bitrate=N/A speed=  18x    frame=30968 fps=432 q=-0.0 size=N/A time=00:21:31.62 bitrate=N/A speed=  18x    frame=31128 fps=431 q=-0.0 size=N/A time=00:21:38.29 bitrate=N/A speed=  18x    frame=31285 fps=430 q=-0.0 size=N/A time=00:21:44.84 bitrate=N/A speed=17.9x    frame=31440 fps=429 q=-0.0 size=N/A time=00:21:51.31 bitrate=N/A speed=17.9x    frame=31574 fps=428 q=-0.0 size=N/A time=00:21:56.89 bitrate=N/A speed=17.8x    frame=31730 fps=427 q=-0.0 size=N/A time=00:22:03.40 bitrate=N/A speed=17.8x    frame=31885 fps=426 q=-0.0 size=N/A time=00:22:09.87 bitrate=N/A speed=17.8x    frame=32058 fps=425 q=-0.0 size=N/A time=00:22:17.08 bitrate=N/A speed=17.7x    frame=32242 fps=425 q=-0.0 size=N/A time=00:22:24.76 bitrate=N/A speed=17.7x    frame=32473 fps=425 q=-0.0 size=N/A time=00:22:34.39 bitrate=N/A speed=17.7x    frame=32721 fps=425 q=-0.0 size=N/A time=00:22:44.73 bitrate=N/A speed=17.7x    frame=32964 fps=426 q=-0.0 size=N/A time=00:22:54.87 bitrate=N/A speed=17.8x    frame=33218 fps=426 q=-0.0 size=N/A time=00:23:05.46 bitrate=N/A speed=17.8x    frame=33478 fps=427 q=-0.0 size=N/A time=00:23:16.31 bitrate=N/A speed=17.8x    frame=33742 fps=427 q=-0.0 size=N/A time=00:23:27.32 bitrate=N/A speed=17.8x    [Parsed_ssim_10 @ 0000018e8e0f2b40] SSIM Y:0.994416 (22.530610) U:0.994984 (22.996789) V:0.994810 (22.848723) All:0.994577 (22.657234)
[out#0/null @ 0000018efd3e7980] video:14500KiB audio:263908KiB subtitle:0KiB other streams:0KiB global headers:0KiB muxing overhead: unknown
frame=33745 fps=427 q=-0.0 Lsize=N/A time=00:23:27.44 bitrate=N/A speed=17.8x    
